<?xml version="1.0" standalone="no"?><svg xmlns="http://www.w3.org/2000/svg" viewBox="0 0 1440 320"><path fill="#0099ff" fill-opacity="0.52" d="M0,192L40,170.7C80,149,160,107,240,122.7C320,139,400,213,480,250.7C560,288,640,288,720,250.7C800,213,880,139,960,117.3C1040,96,1120,128,1200,154.7C1280,181,1360,203,1400,213.3L1440,224L1440,320L1400,320C1360,320,1280,320,1200,320C1120,320,1040,320,960,320C880,320,800,320,720,320C640,320,560,320,480,320C400,320,320,320,240,320C160,320,80,320,40,320L0,320Z"></path></svg>